<svg width="248" height="150" viewBox="0 0 248 150" fill="none" xmlns="http://www.w3.org/2000/svg">
<path d="M129.72 0.691429C128.558 1.514 127.881 3.54622 123.526 19.3201C122.026 24.7878 120.768 29.2877 120.72 29.3361C120.623 29.4329 115.929 26.8684 110.22 23.6265C94.0105 14.4815 94.446 14.6751 92.1718 16.4654C89.8009 18.3524 90.188 19.4169 99.333 35.6263C108.188 51.3518 108.962 52.368 111.526 51.497C113.317 50.8196 114.817 48.739 114.478 47.2874C114.284 46.7068 112.107 42.4972 109.542 37.9972C107.026 33.4973 104.946 29.7716 104.946 29.6748C104.946 29.6264 107.946 31.2232 111.623 33.3038C120.526 38.3843 122.123 39.1585 123.478 39.1585C125.607 39.1585 126.526 37.3682 129.139 28.0297C130.494 23.0943 131.703 19.0298 131.8 18.9331C131.994 18.7395 132.574 20.675 135.478 30.9328C137.365 37.8037 138.236 39.1585 140.606 39.1585C141.284 39.1585 145.542 37.0779 150.042 34.5134C154.59 31.9973 158.364 29.9651 158.461 30.0619C158.509 30.1587 156.526 33.9328 153.961 38.4327C149.122 47.0455 148.59 48.6422 150.235 50.3357C151.203 51.2551 163.638 55.126 165.719 55.126C166.3 55.126 167.316 54.6905 168.041 54.1099C169.009 53.3357 169.3 52.7067 169.3 51.2551C169.3 48.8358 168.09 47.868 163.445 46.7068C161.461 46.2229 159.671 45.6423 159.477 45.4487C159.235 45.2552 161.896 40.1262 165.332 34.0296C173.412 19.7072 173.316 19.9008 172.977 18.546C172.541 16.9492 170.799 15.4492 169.3 15.4492C168.574 15.4492 162.961 18.304 156.042 22.2233C149.461 25.9491 143.848 29.0942 143.558 29.1426C143.268 29.1909 141.332 23.1427 139.252 15.6912C136.058 4.36879 135.236 1.94947 134.219 1.03013C132.768 -0.22791 131.22 -0.324683 129.72 0.691429Z" fill="black" fill-opacity="0.7"/>
<path d="M7.44744 7.75558C5.02812 8.04589 2.60881 8.57814 1.97979 8.96523C0.237883 10.0781 -0.294366 11.7232 0.431428 13.5135C1.44754 15.9329 2.17333 16.078 9.72159 15.4006C18.1892 14.6748 38.8501 15.0619 47.3177 16.1748C60.0433 17.7715 68.4141 20.2876 73.8334 24.1585C77.8495 26.9649 83.2203 32.5293 86.0267 36.6906C87.9622 39.5454 91.3976 46.3194 91.3976 47.2388C91.3976 47.4807 90.3331 48.0129 88.9783 48.4968C81.8171 51.0613 78.4785 57.3515 81.3817 62.9159C82.6397 65.2868 85.8816 67.2223 90.188 68.2384C91.5428 68.5771 92.8976 68.8674 93.2363 68.9642C93.6234 69.061 93.8169 70.319 93.8169 73.1254C93.8169 77.8673 94.3976 78.9802 97.3975 80.2382C101.607 82.0769 104.414 85.5607 105.381 90.3509C106.543 95.867 105.72 107.093 103.784 112.609C102.188 117.06 106.155 120.399 109.542 117.447C112.446 114.883 114.623 98.9153 113.22 90.109C112.204 83.6736 109.059 78.4479 104.268 75.2544L101.559 73.4641V69.5932C101.559 67.4642 101.801 65.2385 102.139 64.6578C103.059 63.0611 102.865 56.2386 101.849 53.6741C101.365 52.4645 100.301 49.4161 99.4297 46.9001C95.3653 35.0454 88.8331 25.7069 79.7365 18.8844C72.1883 13.1748 63.4303 10.32 47.85 8.3846C40.4953 7.46526 13.786 7.07817 7.44744 7.75558ZM94.4943 55.8515C94.6395 56.2386 94.8814 57.6902 95.075 59.045L95.4137 61.4643L93.5266 61.1256C90.7686 60.6418 88.0106 59.4805 88.0106 58.7547C88.0106 57.9321 89.4138 56.7709 91.3976 55.8999C93.575 54.9806 94.1556 54.9322 94.4943 55.8515Z" fill="black" fill-opacity="0.7"/>
<path d="M236.266 17.0942C217.057 25.465 195.089 40.2712 178.735 55.7064C173.993 60.2064 173.799 60.3515 167.122 63.0612C155.267 67.9482 146.171 72.6416 142.445 75.7867C136.107 81.1576 132.623 86.5285 131.22 93.109C130.445 96.7864 130.784 102.641 132.332 112.222C133.203 117.834 134.413 120.447 137.607 123.592C142.977 129.012 151.493 130.802 153.284 126.931C154.638 123.883 153.332 122.141 148.929 121.125C145.493 120.35 142.3 118.173 141.042 115.657C140.413 114.496 139.3 107.044 138.574 99.496C138.332 97.0283 138.381 96.2057 138.913 96.0606C139.252 95.9638 140.8 95.6735 142.3 95.3832C146.364 94.609 150.187 92.5284 153.622 89.1897C157.3 85.6575 158.703 82.7544 159.09 78.1577L159.38 74.819L165.912 72.0126L172.445 69.2062L208.879 69.1578H245.314L246.476 67.9482C248.411 66.0127 247.927 63.3031 245.411 61.9967C244.637 61.5612 236.169 61.416 214.202 61.416L184.057 61.3676L186.719 58.9483C194.267 51.9807 208.492 41.2873 217.928 35.3842C223.589 31.852 234.573 26.2392 240.669 23.6747C247.443 20.8683 249.04 18.7393 246.669 15.7394C245.169 13.8523 243.089 14.0943 236.266 17.0942ZM150.235 81.1576C149.8 81.9802 148.59 83.3834 147.477 84.3027C145.542 85.9962 142.3 87.7865 141.913 87.4478C141.816 87.3511 142.784 86.1414 144.09 84.7866C146.558 82.2221 150.429 79.1738 150.768 79.5125C150.913 79.6093 150.671 80.3834 150.235 81.1576Z" fill="black" fill-opacity="0.7"/>
<path d="M29.6083 21.7394C29.0277 21.9814 28.3503 22.6104 28.06 23.1426C27.7213 23.7717 27.5277 29.9651 27.5277 41.0455C27.5277 51.0615 27.3342 58.4646 27.0439 59.2388C26.1729 61.5613 24.2858 61.9 12.5764 61.9H1.93139L0.963665 63.1581C-0.39115 64.8516 -0.294378 66.4 1.10882 68.0451L2.27009 69.3999H13.8344C22.3504 69.3999 25.8342 69.2064 27.2374 68.7225C29.6083 67.8999 32.6083 65.1903 33.9631 62.6742C35.0276 60.7388 35.0276 60.2549 35.0276 42.2068C35.0276 24.3523 34.9792 23.6749 34.0599 22.7555C32.8502 21.5943 31.0115 21.1588 29.6083 21.7394Z" fill="black" fill-opacity="0.7"/>
<path d="M69.6721 100.899C50.9466 105.931 44.6564 129.205 58.3981 142.657C66.4302 150.495 77.4139 152.189 87.4299 147.108C100.301 140.576 104.752 123.641 96.72 111.399C90.9137 102.593 79.6881 98.1896 69.6721 100.899ZM82.2041 109.27C86.6557 110.964 90.5266 114.98 92.1717 119.576C93.2362 122.625 93.0911 127.947 91.8814 131.237C90.4298 135.06 86.946 138.786 83.0751 140.576C80.4622 141.786 79.4461 141.979 75.9139 141.979C72.4785 141.979 71.3656 141.786 69.0915 140.721C65.269 138.931 62.6561 136.366 60.8174 132.641C59.3658 129.737 59.2207 129.012 59.2207 125.044C59.2207 121.27 59.4142 120.351 60.5755 117.931C64.5916 109.706 73.7366 106.077 82.2041 109.27Z" fill="black" fill-opacity="0.7"/>
<path d="M70.8334 113.625C65.1722 116.189 62.2207 122.673 63.9626 128.721C66.5271 137.382 77.2204 140.528 84.0913 134.624C91.1557 128.576 89.5105 117.496 80.9945 113.625C78.4301 112.415 73.3979 112.415 70.8334 113.625ZM79.3494 121.85C81.7203 124.221 81.0429 127.947 77.9946 129.399C75.8172 130.415 73.8818 129.979 72.2366 128.044C71.1721 126.786 71.027 126.205 71.2205 124.608C71.8012 120.544 76.4462 118.947 79.3494 121.85Z" fill="black" fill-opacity="0.7"/>
<path d="M176.751 100.851C172.299 101.818 168.477 103.899 164.896 107.238C159.719 112.125 157.203 117.931 157.203 125.044C157.203 141.156 172.009 152.914 187.638 149.237C196.347 147.156 203.557 140.14 205.879 131.431C206.267 130.028 206.557 127.173 206.557 124.995C206.557 117.979 204.041 112.125 198.863 107.238C195.234 103.851 191.412 101.818 186.719 100.802C182.896 99.9797 180.622 100.028 176.751 100.851ZM188.315 109.318C191.654 110.576 195.331 113.963 197.17 117.544C198.428 119.963 198.573 120.641 198.573 125.044C198.573 129.35 198.428 130.173 197.218 132.592C195.622 135.931 192.428 138.979 188.751 140.673C186.428 141.785 185.315 141.979 181.88 141.979C178.203 141.979 177.38 141.785 174.525 140.382C170.945 138.64 168.138 135.786 166.348 132.157C165.38 130.221 165.187 129.108 165.187 125.044C165.187 120.737 165.332 119.963 166.493 117.737C168.235 114.399 169.832 112.609 172.59 110.818C177.332 107.77 182.799 107.286 188.315 109.318Z" fill="black" fill-opacity="0.7"/>
<path d="M176.703 113.624C171.864 115.85 168.961 120.931 169.445 126.302C170.509 138.398 186.235 141.882 192.67 131.479C196.396 125.479 193.976 117.157 187.589 113.963C184.444 112.366 179.799 112.27 176.703 113.624ZM185.315 121.85C187.251 123.786 187.251 126.157 185.315 128.286C184.154 129.592 183.573 129.882 181.88 129.882C180.186 129.882 179.606 129.592 178.444 128.286C176.509 126.157 176.509 123.786 178.444 121.85C179.557 120.737 180.283 120.447 181.88 120.447C183.477 120.447 184.202 120.737 185.315 121.85Z" fill="black" fill-opacity="0.7"/>
<path d="M1.15719 122.625C-0.729872 124.512 -0.149237 127.657 2.31846 128.673C3.18942 129.012 9.91511 129.157 23.8504 129.06L44.0758 128.915L44.9952 127.753C46.2532 126.205 46.2048 123.786 44.8016 122.479C43.6887 121.415 43.5436 121.415 22.9794 121.415H2.31846L1.15719 122.625Z" fill="black" fill-opacity="0.7"/>
<path d="M211.928 122.238C211.395 122.721 210.766 123.786 210.621 124.657C210.379 125.963 210.573 126.447 211.783 127.705L213.234 129.157H228.766C245.169 129.157 246.185 129.012 247.153 126.883C247.976 125.092 247.782 123.883 246.476 122.625L245.314 121.415H229.153C214.444 121.415 212.847 121.512 211.928 122.238Z" fill="black" fill-opacity="0.7"/>
</svg>
