<?xml version="1.0" standalone="no"?>
<!DOCTYPE svg PUBLIC "-//W3C//DTD SVG 20010904//EN"
 "http://www.w3.org/TR/2001/REC-SVG-20010904/DTD/svg10.dtd">
<svg version="1.0" xmlns="http://www.w3.org/2000/svg"
 width="512.000000pt" height="512.000000pt" viewBox="0 0 512.000000 512.000000"
 preserveAspectRatio="xMidYMid meet">

<g transform="translate(0.000000,512.000000) scale(0.100000,-0.100000)"
fill="#000000" stroke="none">
<path d="M517 4602 l-517 -517 0 -2043 0 -2042 1735 0 1735 0 0 415 0 415 84
0 84 0 16 -46 c37 -109 122 -205 224 -252 74 -34 202 -42 283 -18 125 36 238
144 276 263 l17 53 238 0 c264 0 284 4 347 63 18 18 44 55 57 82 23 49 24 57
24 311 0 282 -4 312 -55 378 -49 64 -99 81 -334 115 -118 17 -220 36 -227 42
-7 6 -84 109 -170 230 -87 121 -174 233 -195 250 -20 16 -64 42 -96 57 -56 26
-65 27 -273 32 l-214 5 86 67 c213 166 375 413 442 671 26 101 46 241 46 327
l0 55 195 195 195 195 -60 60 -60 60 -135 -135 -135 -135 0 39 c0 26 -4 37
-12 33 -7 -2 -85 -28 -173 -57 -148 -48 -166 -52 -235 -48 -85 5 -148 29 -203
78 l-37 32 0 644 0 644 -1218 0 -1217 0 -518 -518z m2783 -214 l0 -563 -35
-28 c-58 -46 -123 -70 -205 -75 -69 -4 -87 0 -235 48 -88 29 -166 55 -174 58
-11 4 -13 -37 -8 -254 3 -142 10 -287 16 -321 32 -175 106 -358 207 -510 63
-94 200 -237 286 -298 32 -22 57 -43 58 -47 0 -4 -114 -8 -253 -10 l-253 -3
-64 -32 c-88 -43 -125 -84 -265 -291 l-120 -177 -350 -105 c-192 -58 -366
-114 -385 -126 -50 -29 -96 -95 -109 -154 -14 -66 -14 -414 0 -480 14 -64 61
-127 119 -160 44 -24 51 -25 294 -30 l249 -5 12 -42 c30 -101 121 -204 223
-251 51 -24 69 -27 167 -27 99 0 116 3 168 27 32 15 76 41 97 58 50 39 113
134 130 194 l13 46 208 0 209 0 0 -330 0 -330 -1565 0 -1565 0 0 1895 0 1895
493 2 492 3 3 493 2 492 1070 0 1070 0 0 -562z m-2310 92 l0 -350 -352 0 -353
0 350 350 c192 193 351 350 352 350 2 0 3 -157 3 -350z m2424 -819 c29 -31
137 -80 216 -97 89 -19 180 -13 265 16 32 11 61 18 64 15 3 -3 -125 -136 -284
-295 l-290 -290 -90 90 c-50 50 -95 90 -101 90 -5 0 -34 -25 -64 -55 l-55 -55
150 -150 c82 -83 154 -150 160 -150 5 0 136 126 291 281 l281 281 -9 -64 c-22
-145 -101 -335 -195 -466 -67 -94 -178 -201 -277 -267 l-87 -58 -35 19 c-105
57 -283 224 -356 335 -127 192 -188 401 -188 641 0 110 1 120 18 113 9 -4 51
-16 92 -27 131 -34 292 -6 407 72 32 22 61 40 64 40 3 0 14 -8 23 -19z m571
-1458 c56 -30 84 -62 237 -278 142 -198 171 -232 226 -259 19 -10 124 -30 240
-47 146 -21 214 -36 232 -48 l25 -18 3 -257 2 -257 -24 -24 -25 -25 -225 0
-226 0 -6 28 c-21 85 -108 199 -188 246 -189 111 -437 51 -556 -135 -18 -27
-38 -68 -45 -92 l-12 -42 -380 -3 -381 -2 -7 27 c-27 108 -137 232 -242 274
-47 19 -77 23 -158 24 -88 0 -107 -3 -159 -28 -112 -52 -189 -134 -226 -240
l-18 -52 -209 -3 c-114 -1 -218 0 -230 3 -12 3 -32 15 -43 27 -19 20 -20 35
-20 238 0 202 1 218 20 238 21 22 33 26 469 157 169 51 268 86 292 103 25 18
81 92 161 211 68 101 137 194 154 207 69 54 63 53 694 51 579 -2 585 -2 625
-24z m-1409 -1068 c88 -36 144 -124 144 -223 0 -74 -19 -124 -63 -170 -147
-154 -402 -69 -424 141 -13 123 69 237 190 268 38 9 110 2 153 -16z m1569 1
c86 -36 145 -129 145 -229 0 -68 -16 -110 -60 -161 -116 -132 -322 -105 -403
54 -25 49 -28 63 -24 123 6 89 42 149 116 194 29 18 65 34 80 36 36 6 110 -2
146 -17z"/>
<path d="M1320 4375 l0 -415 908 2 907 3 3 413 2 412 -910 0 -910 0 0 -415z
m1650 0 l0 -245 -740 0 -740 0 0 245 0 245 740 0 740 0 0 -245z"/>
<path d="M1820 4375 l0 -85 80 0 80 0 0 85 0 85 -80 0 -80 0 0 -85z"/>
<path d="M2150 4375 l0 -85 80 0 80 0 0 85 0 85 -80 0 -80 0 0 -85z"/>
<path d="M2480 4375 l0 -85 80 0 80 0 0 85 0 85 -80 0 -80 0 0 -85z"/>
<path d="M330 3715 l0 -85 950 0 950 0 0 85 0 85 -950 0 -950 0 0 -85z"/>
<path d="M330 3385 l0 -85 495 0 495 0 0 85 0 85 -495 0 -495 0 0 -85z"/>
<path d="M1490 3385 l0 -85 370 0 370 0 0 85 0 85 -370 0 -370 0 0 -85z"/>
<path d="M330 3055 l0 -85 950 0 950 0 0 85 0 85 -950 0 -950 0 0 -85z"/>
<path d="M330 2725 l0 -85 950 0 950 0 0 85 0 85 -950 0 -950 0 0 -85z"/>
<path d="M330 2395 l0 -85 950 0 950 0 0 85 0 85 -950 0 -950 0 0 -85z"/>
<path d="M745 821 c-74 -18 -115 -67 -188 -223 l-46 -98 -90 0 -91 0 0 -85 0
-85 100 0 c158 0 198 29 280 205 26 55 54 106 63 113 19 16 37 -8 94 -129 80
-170 166 -221 280 -170 52 24 91 76 154 209 30 65 53 102 61 100 7 -2 39 -55
70 -118 61 -121 103 -174 155 -196 20 -9 70 -14 133 -14 l101 0 -3 83 -3 82
-90 5 -90 5 -56 114 c-82 167 -154 224 -252 202 -79 -18 -111 -56 -186 -213
-31 -65 -57 -108 -66 -108 -9 0 -37 44 -70 110 -30 61 -66 125 -80 144 -40 53
-118 82 -180 67z"/>
<path d="M1987 494 c-4 -4 -7 -43 -7 -86 l0 -78 85 0 86 0 -3 83 -3 82 -75 3
c-42 1 -79 0 -83 -4z"/>
<path d="M2632 1815 l-122 -245 835 0 835 0 -122 245 -123 245 -590 0 -590 0
-123 -245z m1238 5 c22 -44 40 -82 40 -85 0 -3 -254 -5 -565 -5 -311 0 -565 2
-565 5 0 3 18 41 40 85 l40 80 485 0 485 0 40 -80z"/>
<path d="M2390 910 l0 -80 85 0 85 0 0 80 0 80 -85 0 -85 0 0 -80z"/>
<path d="M3960 910 l0 -80 85 0 85 0 0 80 0 80 -85 0 -85 0 0 -80z"/>
</g>
</svg>
