<svg width="315" height="150" viewBox="0 0 315 150" fill="none" xmlns="http://www.w3.org/2000/svg">
<path d="M25.0473 33.1265C24.9328 34.522 26.0361 36.3178 35.1711 49.5763C38.3435 54.1648 40.9396 57.959 40.9454 58.0261C40.9572 58.1602 36.0559 60.0759 30.0014 62.329C12.857 68.7626 13.2783 68.5568 13.1894 71.4032C13.1123 74.3836 14.1594 74.7651 32.1605 78.1239C49.6133 81.3955 50.8688 81.4547 51.8342 78.9709C52.4559 77.1931 51.8364 74.7467 50.5281 74.0839C49.968 73.8626 45.4181 72.8414 40.4045 71.9283C35.4215 70.9788 31.2975 70.1906 31.2245 70.1294C31.1881 70.0988 34.2889 68.8476 38.1828 67.3917C47.6429 63.8945 49.2362 63.1806 50.0931 62.1595C51.4396 60.5548 50.6716 58.7296 45.2854 50.8541C42.4224 46.7116 40.124 43.2293 40.1122 43.0951C40.0888 42.8268 41.9148 43.6133 51.4825 47.9127C57.8546 50.8358 59.4266 51.0362 60.9261 49.2492C61.3545 48.7386 62.4793 44.2134 63.3923 39.1998C64.3725 34.1803 65.2277 30.0504 65.3618 30.0387C65.4654 30.0634 67.0553 33.9456 68.8251 38.7245C72.2566 47.8186 73.1235 49.2296 75.4404 49.0607C76.7453 48.9127 87.5275 41.9881 88.8434 40.4199C89.2106 39.9823 89.5251 38.941 89.5464 38.0268C89.575 36.8077 89.2845 36.1911 88.1904 35.273C86.3669 33.743 84.8724 34.0427 81.0594 36.8093C79.44 37.9986 77.8701 38.9807 77.6018 39.0042C77.303 39.0641 75.1203 33.8145 72.6978 27.3693C67.0132 12.2208 67.0979 12.4161 65.8626 11.8146C64.3836 11.1329 62.1514 11.4972 61.2028 12.6277C60.7437 13.1748 59.3456 19.2108 57.9236 26.9047C56.57 34.2209 55.3907 40.4405 55.2436 40.6899C55.0964 40.9394 49.3136 38.5729 42.3814 35.4285C31.8278 30.6747 29.4841 29.7646 28.1485 29.949C26.2822 30.2474 25.23 31.3533 25.0473 33.1265Z" fill="black" fill-opacity="0.7"/>
<path d="M215.751 9.87777C195.279 10.7823 178.14 16.1144 157.145 28.2544C144.148 35.7288 128.343 47.5832 116.25 58.9615C113.06 61.9608 112.442 62.2464 101.492 66.9596C88.0187 72.7202 84.1625 74.9577 79.3065 79.909C74.9742 84.2889 72.1653 89.3353 71.2608 94.5246C70.2134 100.19 72.1177 115.472 74.4029 119.947C75.974 123.042 79.1637 126.136 82.5914 127.802C84.9718 128.993 85.9716 129.135 91.2085 129.374L97.1118 129.612L97.7784 132.182C100.349 142.418 110.252 149.845 121.249 149.845C134.722 149.797 145.529 139.038 145.529 125.565C145.529 107.426 126.295 95.81 109.871 103.999C104.301 106.76 98.7781 113.853 97.5403 119.662L97.1595 121.518L92.9224 121.661C90.542 121.756 87.8283 121.566 86.8285 121.28C84.6862 120.661 81.5917 117.995 80.8776 116.139C80.2587 114.663 79.0685 106.665 78.5924 100.904L78.2591 97.0002H79.735C80.5443 97.0002 82.4962 96.5717 84.0673 96.0956C90.3991 94.1437 96.2549 88.7164 97.9212 83.3843C98.4449 81.6704 98.8733 79.3377 98.8733 78.2427V76.2908L108.014 72.4821L117.107 68.6735L122.058 64.0555C144.339 43.2509 171.38 26.6833 192.185 21.0656C197.279 19.685 207.181 17.9711 209.943 17.9711H211.752L211.609 37.1095L211.466 56.2954L210.276 58.3426C209.562 59.628 208.276 60.9134 206.943 61.6751L204.801 62.9606L166.381 63.1034L127.962 63.1986L127.01 64.484C125.343 66.5788 125.867 69.0068 128.247 70.2446C129.866 71.1015 202.42 71.0063 206.039 70.1493C212.609 68.6259 217.369 63.7223 218.798 57.1048C219.131 55.4861 219.321 47.9641 219.321 36.1097V17.6379L222.797 17.3522C227.605 17.019 244.696 17.7807 251.219 18.6852C258.169 19.6374 265.548 21.3989 269.405 23.0175C277.688 26.4453 286.401 35.7288 290.305 45.2028C291.066 47.0595 291.685 48.821 291.685 49.1543C291.685 49.4399 290.543 50.154 289.114 50.7729C286.163 51.9631 283.306 54.534 282.354 56.8191C281.973 57.6761 281.688 59.4852 281.688 60.8182V63.1986H252.98H224.225L223.225 64.2936C222.178 65.3886 221.892 67.15 222.463 68.6735C223.32 70.8159 223.416 70.8159 260.264 70.8159H295.018V74.6721C295.018 76.7668 295.256 78.9092 295.541 79.4805C295.827 80.0042 297.017 80.8611 298.207 81.3848C301.254 82.7178 304.254 85.6219 305.539 88.5736C306.586 90.8588 306.682 91.6681 306.682 98.9045C306.682 109.997 305.539 113.806 301.54 115.901C300.778 116.281 300.112 116.519 300.064 116.424C299.969 116.329 299.302 115.091 298.541 113.663C296.684 110.14 292.304 105.95 288.686 104.141C287.067 103.38 284.068 102.332 282.021 101.904C268.167 98.9045 254.361 109.569 253.313 124.089C252.171 139.371 265.406 151.749 280.831 149.797C292.066 148.369 301.683 137.848 301.683 126.946V124.184L304.206 123.042C307.396 121.518 310.49 118.805 311.728 116.424C313.966 112.044 315.156 99.9519 314.109 92.0014C313.156 84.9554 309.729 79.1472 304.682 76.1955L302.54 74.9577L302.873 70.1493C303.063 67.4833 303.254 63.1986 303.302 60.5802C303.302 56.4383 303.159 55.5337 302.207 53.677C301.588 52.4868 300.826 51.2014 300.493 50.8205C300.159 50.4397 299.445 48.583 298.922 46.7739C296.732 39.5851 292.447 32.2059 287.067 26.4929C276.403 15.2099 263.882 11.1156 235.984 9.87777C230.366 9.63973 225.32 9.4493 224.796 9.49691C224.272 9.54451 220.226 9.68734 215.751 9.87777ZM295.684 57.5809C295.827 58.1998 295.97 59.628 295.97 60.7706V62.8653L294.113 62.5321C289.543 61.818 288.257 60.4373 290.495 58.6282C291.59 57.7713 293.732 56.8191 295.065 56.5811C295.256 56.5335 295.494 57.0096 295.684 57.5809ZM90.1611 82.0989C88.8757 84.5745 82.6867 89.5257 81.8773 88.7164C81.7345 88.6212 82.5914 87.4786 83.734 86.2408C86.0192 83.7652 90.3039 80.1946 90.6372 80.5279C90.7324 80.6231 90.542 81.3372 90.1611 82.0989ZM128.485 110.521C131.77 112.187 134.579 114.948 136.341 118.424C137.531 120.757 137.674 121.566 137.674 125.565C137.674 129.421 137.483 130.469 136.436 132.706C131.437 143.275 117.583 145.751 109.347 137.467C102.634 130.802 102.777 120.042 109.68 113.615C113.679 109.854 116.441 108.855 121.963 109.045C124.962 109.188 126.343 109.473 128.485 110.521ZM284.639 110.473C287.781 111.997 291.352 115.662 292.78 118.805C293.59 120.614 293.828 121.947 293.828 125.565C293.828 129.469 293.637 130.469 292.59 132.706C288.591 141.18 278.165 144.798 269.881 140.609C266.358 138.848 264.454 136.991 262.597 133.563C261.026 130.707 260.978 130.326 260.978 125.565C260.978 121.09 261.121 120.328 262.264 118.186C263.501 115.758 267.167 111.949 269.357 110.806C273.594 108.474 280.307 108.378 284.639 110.473Z" fill="black" fill-opacity="0.7"/>
<path d="M117.916 113.615C108.823 116.376 105.872 127.707 112.489 134.324C119.821 141.656 132.437 137.133 133.484 126.755C134.341 118.471 125.772 111.234 117.916 113.615ZM124.391 122.422C126.105 124.136 126.438 125.755 125.486 127.612C123.201 132.087 116.488 130.658 116.488 125.707C116.536 121.28 121.249 119.28 124.391 122.422Z" fill="black" fill-opacity="0.7"/>
<path d="M274.07 113.615C270.69 114.71 267.786 117.186 266.215 120.328C265.739 121.233 265.263 123.28 265.12 124.898C264.596 131.659 269.595 137.324 276.594 137.848C281.402 138.229 286.163 135.515 288.496 131.087C289.876 128.517 289.924 122.804 288.638 120.328C287.401 117.995 285.115 115.663 282.878 114.52C280.831 113.473 276.022 112.949 274.07 113.615ZM279.831 121.614C282.545 123.232 282.878 127.422 280.402 129.374C277.451 131.706 272.642 129.564 272.642 125.946C272.69 121.899 276.403 119.614 279.831 121.614Z" fill="black" fill-opacity="0.7"/>
<path d="M153.765 122.232C151.528 123.136 151.052 126.374 152.908 128.183L154.051 129.373H200.04H246.029L247.172 128.183C248.6 126.802 248.695 124.66 247.457 123.136L246.553 121.994L200.659 121.899C174.808 121.851 154.336 121.994 153.765 122.232Z" fill="black" fill-opacity="0.7"/>
</svg>
