<?xml version="1.0" standalone="no"?>
<!DOCTYPE svg PUBLIC "-//W3C//DTD SVG 20010904//EN"
 "http://www.w3.org/TR/2001/REC-SVG-20010904/DTD/svg10.dtd">
<svg version="1.0" xmlns="http://www.w3.org/2000/svg"
 width="512.000000pt" height="512.000000pt" viewBox="0 0 512.000000 512.000000"
 preserveAspectRatio="xMidYMid meet">

<g transform="translate(0.000000,512.000000) scale(0.100000,-0.100000)"
fill="#000000" stroke="none">
<path d="M386 4469 c-62 -15 -153 -68 -197 -116 -22 -24 -55 -74 -72 -111
l-32 -67 0 -1136 0 -1135 37 -76 c45 -91 103 -147 196 -191 l67 -32 1130 -3
1130 -2 -3 -295 -3 -295 25 -25 c23 -23 32 -25 121 -25 l95 0 0 -56 c0 -87 18
-133 75 -189 63 -64 100 -75 247 -75 146 0 192 15 251 80 49 55 67 103 67 184
l0 56 320 0 320 0 0 -56 c0 -87 18 -133 75 -189 63 -64 100 -75 247 -75 146 0
192 15 251 80 49 55 67 103 67 184 l0 56 95 0 c88 0 98 2 120 25 l25 24 0 275
c0 301 -6 347 -53 445 -32 65 -130 174 -167 186 -28 9 -25 21 10 35 17 7 48
32 69 56 85 97 80 232 -12 322 -51 50 -109 72 -192 72 l-62 0 -17 97 c-10 53
-25 113 -34 132 -15 32 -17 111 -22 791 l-5 755 -32 67 c-44 93 -100 151 -191
196 l-76 37 -1915 2 c-1134 0 -1932 -3 -1955 -8z m3848 -161 c55 -16 138 -99
154 -154 9 -31 12 -208 12 -682 l0 -641 -47 22 c-47 21 -60 22 -482 25 -273 2
-452 -1 -482 -7 -73 -16 -135 -49 -194 -102 l-53 -49 -1451 0 -1451 0 0 696
c0 518 3 707 12 738 15 51 99 137 148 153 53 17 3777 17 3834 1z m55 -1603
c57 -20 103 -57 130 -105 l22 -40 -601 0 -601 0 22 40 c27 47 73 85 127 105
56 21 842 21 901 0z m-1219 -161 c0 -9 -5 -45 -12 -80 l-11 -64 -60 0 c-33 0
-77 -5 -99 -12 -48 -14 -121 -76 -138 -118 l-12 -30 -1249 0 -1249 0 0 160 0
160 1415 0 c1303 0 1415 -1 1415 -16z m1405 -166 c8 -35 65 -356 65 -368 0 -7
-228 -10 -700 -10 -518 0 -700 3 -700 11 0 12 56 323 65 367 l5 22 630 0 630
0 5 -22z m-1471 -210 c-8 -40 -14 -76 -14 -80 0 -19 -62 -6 -85 17 -56 55 -15
135 68 135 l45 0 -14 -72z m1771 47 c50 -49 15 -135 -55 -135 -16 0 -30 3 -30
8 0 4 -6 40 -14 80 l-14 72 45 0 c33 0 50 -6 68 -25z m-2025 -165 c14 -34 77
-95 109 -105 20 -6 30 -25 13 -25 -18 0 -99 -71 -132 -115 l-34 -45 -1129 0
c-858 0 -1140 3 -1171 12 -55 16 -138 99 -154 154 -7 23 -12 67 -12 98 l0 56
1249 0 1249 0 12 -30z m1699 -256 c-47 -24 -105 -61 -129 -81 -56 -48 -117
-143 -138 -215 l-17 -58 -326 0 -326 0 -16 58 c-20 71 -80 166 -137 215 -24
20 -82 57 -129 81 l-86 45 695 0 695 0 -86 -45z m-1188 -211 c39 -35 59 -65
79 -118 l10 -25 -128 0 -128 0 -57 143 c-31 78 -57 146 -57 150 0 14 241 -114
281 -150z m1383 3 l-58 -146 -128 0 -128 0 10 25 c35 93 79 133 232 211 68 34
125 61 127 59 2 -2 -23 -69 -55 -149z m-1764 -41 c22 -54 40 -100 40 -102 0
-1 -28 -3 -61 -3 l-62 0 5 78 c5 66 24 139 35 129 1 -2 21 -48 43 -102z m1998
-27 l5 -78 -63 0 c-46 0 -61 3 -57 13 3 6 22 54 42 106 l38 94 15 -29 c9 -16
18 -64 20 -106z m-1438 -318 l0 -80 -320 0 -320 0 0 80 0 80 320 0 320 0 0
-80z m640 0 l0 -80 -240 0 -240 0 0 80 0 80 240 0 240 0 0 -80z m800 0 l0 -80
-320 0 -320 0 0 80 0 80 320 0 320 0 0 -80z m-1520 -295 c0 -46 -4 -60 -25
-80 -23 -24 -31 -25 -135 -25 -104 0 -112 1 -135 25 -21 20 -25 34 -25 80 l0
55 160 0 160 0 0 -55z m1280 0 c0 -46 -4 -60 -25 -80 -23 -24 -31 -25 -135
-25 -104 0 -112 1 -135 25 -21 20 -25 34 -25 80 l0 55 160 0 160 0 0 -55z"/>
<path d="M560 4147 c-49 -16 -133 -102 -148 -153 -17 -58 -17 -730 0 -788 16
-55 99 -138 154 -154 29 -8 147 -12 396 -12 412 0 420 1 491 80 24 26 49 66
55 88 17 55 17 729 0 784 -6 22 -31 62 -55 88 -71 79 -79 80 -497 79 -233 -1
-373 -5 -396 -12z m775 -172 c21 -20 25 -34 25 -80 l0 -55 -400 0 -400 0 0 55
c0 46 4 60 25 80 l24 25 351 0 351 0 24 -25z m-615 -375 l0 -80 -80 0 -80 0 0
80 0 80 80 0 80 0 0 -80z m320 0 l0 -80 -80 0 -80 0 0 80 0 80 80 0 80 0 0
-80z m320 0 l0 -80 -80 0 -80 0 0 80 0 80 80 0 80 0 0 -80z m0 -295 c0 -46 -4
-60 -25 -80 l-24 -25 -351 0 -351 0 -24 25 c-21 20 -25 34 -25 80 l0 55 400 0
400 0 0 -55z"/>
<path d="M1680 4080 l0 -80 1280 0 1280 0 0 80 0 80 -1280 0 -1280 0 0 -80z"/>
<path d="M1680 3760 l0 -80 1280 0 1280 0 0 80 0 80 -1280 0 -1280 0 0 -80z"/>
<path d="M2940 3335 c-107 -130 -196 -239 -197 -243 -1 -4 25 -29 58 -56 l60
-48 18 23 c11 13 101 121 200 239 l180 215 -57 52 c-31 29 -59 53 -62 53 -3 0
-93 -106 -200 -235z"/>
<path d="M1680 3120 l0 -80 440 0 440 0 0 80 0 80 -440 0 -440 0 0 -80z"/>
<path d="M3200 3120 l0 -80 520 0 520 0 0 80 0 80 -520 0 -520 0 0 -80z"/>
</g>
</svg>
