<svg width="300" height="202" viewBox="0 0 300 202" fill="none" xmlns="http://www.w3.org/2000/svg">
<path d="M21.4199 0.8002C11.2199 2.5402 2.2799 11.6602 0.599896 22.1602C-0.240104 27.1402 -0.180104 174.44 0.599896 179.6C2.0999 189.02 9.0599 197.12 18.2399 200.18C20.9999 201.14 31.6799 201.2 150 201.2C268.32 201.2 279 201.14 281.76 200.18C290.94 197.12 297.9 189.02 299.4 179.6C300.18 174.44 300.24 27.1402 299.4 22.1602C297.66 11.3602 288.84 2.5402 278.04 0.8002C273.72 0.0801998 25.6199 0.1402 21.4199 0.8002ZM281.7 10.8202C284.52 12.3202 288 15.8602 289.56 18.8002C290.64 20.8402 290.7 24.2002 290.88 99.7402C291.06 187.7 291.3 181.82 286.86 186.92C285.6 188.36 283.26 190.16 281.64 191L278.7 192.5H150H21.2999L18.5999 191.12C15.1199 189.32 12.8999 187.16 10.9199 183.8L9.2999 181.1L9.1199 101.9C8.9399 13.0402 8.5799 19.9402 13.4399 14.7202C15.7799 12.1402 18.0599 10.6402 20.9999 9.7402C21.8399 9.5002 80.2799 9.3202 150.9 9.3802L279.3 9.5002L281.7 10.8202Z" fill="black"/>
<path d="M26.9998 37.4002C25.9198 38.4802 25.7998 39.3802 25.7998 45.7402C25.7998 52.7602 25.8598 52.9402 27.3598 54.1402C28.2598 54.8602 29.3998 55.4002 29.9998 55.4002C30.5998 55.4002 31.7398 54.8602 32.6398 54.1402C34.0798 53.0002 34.1998 52.5202 34.1998 48.7402V44.6002H81.5998H129V99.2002V153.8L81.7798 153.68L34.4998 153.5L34.1998 110.18C33.8998 70.4002 33.8398 66.7402 32.8798 65.8402C31.5598 64.4602 28.4998 64.5202 26.9998 65.9002C25.7998 66.9802 25.7998 67.6402 25.7998 113.36V159.74L27.3598 160.94C28.9798 162.2 29.2798 162.2 81.9598 162.2C134.22 162.2 135 162.2 136.2 161C137.4 159.8 137.4 159.02 137.4 99.2002C137.4 39.3802 137.4 38.6002 136.2 37.4002C135 36.2002 134.22 36.2002 81.5998 36.2002C28.9798 36.2002 28.1998 36.2002 26.9998 37.4002Z" fill="black"/>
<path d="M156.6 47.6003C155.94 48.2603 155.4 49.5803 155.4 50.6003C155.4 51.6203 155.94 52.9403 156.6 53.6003C157.8 54.8003 158.58 54.8003 215.4 54.8003C272.22 54.8003 273 54.8003 274.2 53.6003C275.82 51.9803 275.76 49.3403 274.02 47.7203L272.64 46.4003H215.22C158.58 46.4003 157.8 46.4003 156.6 47.6003Z" fill="black"/>
<path d="M77.3999 59.6603C60.4799 62.1203 48.7799 77.6603 51.1199 94.5803C52.0199 101.54 55.3199 107.66 61.0199 113C65.2199 116.9 65.5199 117.38 64.4999 117.98C62.0999 119.3 57.8999 123.62 55.6799 127.04C51.4199 133.64 49.3799 143.84 51.8399 146.54C53.3399 148.16 56.4599 148.22 57.8999 146.6C58.6199 145.82 59.2199 143.84 59.5199 141.44C60.4199 133.58 65.1599 126.98 72.2999 123.44C75.5399 121.88 76.4999 121.7 81.5999 121.7C86.5199 121.7 87.7799 121.94 90.7199 123.32C92.5799 124.16 95.3399 126.02 96.8399 127.4C99.7199 130.1 102.96 135.8 103.5 139.16C103.68 140.3 103.98 142.16 104.16 143.36C104.58 146 106.32 147.8 108.48 147.8C111.3 147.8 112.5 145.88 112.38 141.74C112.14 132.86 107.76 124.7 99.9599 118.64L97.6799 116.84L100.8 114.44C109.74 107.66 114.24 95.6003 111.96 84.4403C110.64 78.0203 108.12 73.1003 103.86 68.7803C96.7199 61.6403 86.9999 58.2203 77.3999 59.6603ZM91.1999 70.2203C108.06 78.5603 108.12 101.84 91.2599 110.36C88.2599 111.92 87.2999 112.1 81.8999 112.1C76.6799 112.1 75.4799 111.92 72.4799 110.48C67.7399 108.26 63.9599 104.6 61.6199 99.8603C59.8799 96.2603 59.6999 95.4203 59.6999 90.2003C59.6999 85.3403 59.9399 84.0203 61.2599 81.2003C63.9599 75.4403 67.6199 71.9603 73.7399 69.3803C76.5599 68.1803 77.9399 68.0003 82.1999 68.1203C86.5799 68.3003 87.8999 68.6003 91.1999 70.2203Z" fill="black"/>
<path d="M156.6 80.0002C155.94 80.6602 155.4 81.9802 155.4 83.0002C155.4 84.0202 155.94 85.3402 156.6 86.0002C157.8 87.2002 158.58 87.2002 193.8 87.2002H229.86L231.3 85.7002C233.1 83.9002 233.16 82.4602 231.54 80.3602L230.34 78.8002H194.04C158.58 78.8002 157.8 78.8002 156.6 80.0002Z" fill="black"/>
<path d="M243.06 80.3602C241.44 82.4602 241.5 83.9002 243.3 85.7002L244.74 87.2002H258.48C271.5 87.2002 272.34 87.1402 273.84 85.9402C275.76 84.4402 275.94 81.7402 274.2 80.0002C273.06 78.8602 272.22 78.8002 258.66 78.8002H244.26L243.06 80.3602Z" fill="black"/>
<path d="M156.6 112.4C154.86 114.14 155.04 116.84 156.96 118.34C158.58 119.6 158.82 119.6 215.4 119.6C271.98 119.6 272.22 119.6 273.84 118.34C275.76 116.84 275.94 114.14 274.2 112.4C273 111.2 272.22 111.2 215.4 111.2C158.58 111.2 157.8 111.2 156.6 112.4Z" fill="black"/>
<path d="M158.58 143.42C155.34 144.02 154.32 148.7 156.96 150.74C158.52 152 159.12 152 190.02 152H221.46L222.9 150.5C225.42 148.04 224.64 144.8 221.34 143.66C219.48 143 161.76 142.82 158.58 143.42Z" fill="black"/>
</svg>
