<svg width="301" height="201" viewBox="0 0 301 201" fill="none" xmlns="http://www.w3.org/2000/svg">
<path d="M21.4277 0.517973C11.2277 2.25797 2.28771 11.378 0.607708 21.878C-0.232292 26.858 -0.172292 174.158 0.607708 179.318C2.10771 188.738 9.06771 196.838 18.2477 199.898C21.0077 200.858 31.6877 200.918 150.008 200.918C268.328 200.918 279.008 200.858 281.768 199.898C290.948 196.838 297.908 188.738 299.408 179.318C300.188 174.158 300.248 26.858 299.408 21.878C297.668 11.078 288.848 2.25797 278.048 0.517973C273.728 -0.202027 25.6277 -0.142027 21.4277 0.517973ZM281.708 10.538C284.528 12.038 288.008 15.578 289.568 18.518C290.648 20.558 290.708 23.918 290.888 99.458C291.068 187.418 291.308 181.538 286.868 186.638C285.608 188.078 283.268 189.878 281.648 190.718L278.708 192.218H150.008H21.3077L18.6077 190.838C15.1277 189.038 12.9077 186.878 10.9277 183.518L9.30771 180.818L9.12771 101.618C8.94771 12.758 8.58771 19.658 13.4477 14.438C15.7877 11.858 18.0677 10.358 21.0077 9.45797C21.8477 9.21797 80.2877 9.03797 150.908 9.09797L279.308 9.21797L281.708 10.538Z" fill="black"/>
<path d="M36.4106 47.2857C35.0848 47.9929 34 49.4071 34 50.5C34 51.5929 35.0848 53.0071 36.4106 53.7143C38.8211 55 40.388 55 154.529 55C268.669 55 270.236 55 272.646 53.7143C275.901 51.9786 275.78 49.15 272.285 47.4143L269.513 46H154.167C40.388 46 38.8211 46 36.4106 47.2857Z" fill="black"/>
<path d="M37.0891 80.1429C35.3901 80.7714 34 82.0286 34 83C34 83.9714 35.3901 85.2286 37.0891 85.8571C40.1781 87 42.186 87 132.85 87H225.676L229.383 85.5714C234.017 83.8571 234.171 82.4857 230.001 80.4857L226.912 79H133.468C42.186 79 40.1781 79 37.0891 80.1429Z" fill="black"/>
<path d="M243.068 80.078C241.448 82.178 241.508 83.618 243.308 85.418L244.748 86.918H258.488C271.508 86.918 272.348 86.858 273.848 85.658C275.768 84.158 275.948 81.458 274.208 79.718C273.068 78.578 272.228 78.518 258.668 78.518H244.268L243.068 80.078Z" fill="black"/>
<path d="M36.4099 112.143C32.9154 113.8 33.2769 116.371 37.1329 117.8C40.3864 119 40.8684 119 154.5 119C268.132 119 268.614 119 271.867 117.8C275.723 116.371 276.085 113.8 272.59 112.143C270.18 111 268.614 111 154.5 111C40.3864 111 38.8199 111 36.4099 112.143Z" fill="black"/>
<path d="M42.611 143.368C33.6807 143.971 30.8693 148.68 38.1459 150.732C42.4456 152 44.0994 152 129.268 152H215.924L219.893 150.491C226.839 148.016 224.689 144.756 215.594 143.609C210.467 142.945 51.3759 142.764 42.611 143.368Z" fill="black"/>
</svg>
