<?xml version="1.0" standalone="no"?>
<!DOCTYPE svg PUBLIC "-//W3C//DTD SVG 20010904//EN"
 "http://www.w3.org/TR/2001/REC-SVG-20010904/DTD/svg10.dtd">
<svg version="1.0" xmlns="http://www.w3.org/2000/svg"
 width="150.000000pt" height="168.000000pt" viewBox="0 0 150.000000 168.000000"
 preserveAspectRatio="xMidYMid meet">

<g transform="translate(0.000000,168.000000) scale(0.100000,-0.100000)"
fill="#000000" stroke="none">
<path d="M550 1330 c-11 -11 -22 -30 -26 -44 l-6 -24 -173 -4 -173 -3 -39 -30
c-48 -38 -111 -165 -126 -253 -15 -86 2 -175 52 -279 38 -77 72 -116 109 -127
9 -2 92 -8 183 -11 l165 -7 11 -28 c6 -15 23 -36 37 -45 36 -24 50 -10 35 34
-6 17 -9 34 -6 37 3 3 169 8 369 11 l363 5 62 28 c34 16 68 39 77 52 47 73 46
461 -2 528 -10 14 -45 39 -77 55 l-60 30 -368 3 -369 4 7 26 c3 15 8 35 11 45
7 24 -30 23 -56 -3z m-362 -153 c-21 -18 -51 -48 -67 -67 l-30 -35 9 34 c18
66 53 99 105 100 16 0 13 -6 -17 -32z m691 14 c8 -14 7 -20 -3 -24 -24 -9
-222 11 -257 26 -32 15 -27 15 108 16 130 1 143 -1 152 -18z m355 4 c-8 -20
-25 -23 -181 -30 -124 -5 -133 -5 -142 14 -6 11 -11 22 -11 25 0 3 76 6 170 6
147 0 169 -2 164 -15z m-631 -49 c37 -7 70 -16 73 -19 3 -3 1 -37 -5 -76 -14
-88 -14 -207 0 -291 13 -80 10 -83 -108 -99 -101 -14 -105 -13 -123 72 -27
129 -20 309 15 395 16 37 36 40 148 18z m805 -50 c21 -20 42 -115 42 -190 0
-85 -26 -183 -52 -197 -10 -5 -55 -8 -99 -7 l-82 3 1 200 c0 110 1 204 1 209
1 13 174 -3 189 -18z m-1246 -431 c37 -36 61 -65 54 -65 -29 0 -75 23 -89 43
-13 21 -39 87 -34 87 2 0 33 -29 69 -65z m728 -23 c0 -5 -6 -16 -13 -25 -11
-15 -29 -17 -152 -15 -126 3 -137 4 -110 16 55 25 275 44 275 24z m336 -12 c8
-7 14 -16 14 -21 0 -5 -78 -9 -174 -9 l-174 0 11 26 12 26 148 -5 c93 -4 154
-10 163 -17z"/>
<path d="M811 396 c-75 -75 -92 -106 -60 -106 6 0 37 25 70 56 l59 57 2 -189
c3 -160 5 -189 18 -189 13 0 15 29 18 189 l2 189 59 -57 c61 -57 75 -64 87
-45 6 10 -151 179 -166 179 -3 0 -43 -38 -89 -84z"/>
</g>
</svg>
