<?xml version="1.0" standalone="no"?>
<!DOCTYPE svg PUBLIC "-//W3C//DTD SVG 20010904//EN"
 "http://www.w3.org/TR/2001/REC-SVG-20010904/DTD/svg10.dtd">
<svg version="1.0" xmlns="http://www.w3.org/2000/svg"
 width="199.000000pt" height="159.000000pt" viewBox="0 0 199.000000 159.000000"
 preserveAspectRatio="xMidYMid meet">

<g transform="translate(0.000000,159.000000) scale(0.100000,-0.100000)"
fill="#000000" stroke="none">
<path d="M1645 1270 c-71 -71 -131 -127 -133 -125 -3 2 -6 38 -7 80 -2 81 -6
91 -30 81 -13 -5 -15 -24 -13 -123 l3 -118 120 0 c100 0 120 3 120 15 0 12
-17 16 -84 18 l-85 3 134 134 c94 94 131 138 127 149 -4 9 -10 16 -14 16 -5 0
-67 -58 -138 -130z"/>
<path d="M550 1150 c-11 -11 -22 -31 -26 -45 l-6 -25 -152 0 c-83 0 -167 -5
-186 -10 -52 -14 -93 -63 -135 -157 -62 -144 -59 -242 14 -398 30 -63 49 -90
78 -109 37 -25 42 -26 205 -26 l168 0 13 -32 c18 -41 52 -72 71 -65 12 5 13
13 5 42 -6 20 -8 40 -4 43 4 4 174 9 378 12 l372 5 52 28 c29 15 60 38 68 50
47 72 45 460 -3 527 -10 14 -45 39 -77 55 l-60 30 -368 4 -369 3 7 27 c3 14 8
34 11 44 7 24 -30 23 -56 -3z m-363 -153 c-20 -17 -50 -48 -67 -67 l-29 -35 9
34 c18 66 53 99 105 100 16 1 13 -5 -18 -32z m693 18 c10 -12 10 -19 2 -27
-15 -15 -215 4 -262 25 -34 15 -29 15 106 16 116 1 144 -2 154 -14z m354 0
c-8 -20 -23 -23 -175 -31 -132 -6 -137 -6 -148 14 -6 11 -11 23 -11 26 0 3 76
6 170 6 144 0 169 -2 164 -15z m-631 -49 c37 -7 70 -16 73 -19 3 -3 1 -37 -5
-76 -14 -88 -14 -207 0 -291 13 -80 10 -82 -107 -100 -102 -15 -105 -13 -124
74 -28 125 -21 306 15 392 16 40 35 42 148 20z m809 -56 c54 -66 46 -349 -11
-380 -20 -10 -168 -16 -177 -7 -11 11 -10 407 1 412 6 3 46 3 90 0 65 -4 83
-8 97 -25z m-1250 -425 c37 -36 61 -65 54 -65 -31 0 -76 23 -91 47 -15 22 -38
83 -31 83 1 0 32 -29 68 -65z m728 -23 c0 -5 -6 -16 -13 -25 -11 -15 -29 -17
-152 -15 -123 3 -137 5 -111 16 57 25 276 44 276 24z m336 -12 c8 -7 14 -16
14 -21 0 -5 -77 -9 -171 -9 -152 0 -170 2 -165 16 3 9 6 20 6 26 0 16 296 3
316 -12z"/>
</g>
</svg>
