<?xml version="1.0" standalone="no"?>
<!DOCTYPE svg PUBLIC "-//W3C//DTD SVG 20010904//EN"
 "http://www.w3.org/TR/2001/REC-SVG-20010904/DTD/svg10.dtd">
<svg version="1.0" xmlns="http://www.w3.org/2000/svg"
 width="192.000000pt" height="160.000000pt" viewBox="0 0 192.000000 160.000000"
 preserveAspectRatio="xMidYMid meet">

<g transform="translate(0.000000,160.000000) scale(0.100000,-0.100000)"
fill="#000000" stroke="none">
<path d="M193 1394 c-4 -11 31 -53 121 -143 69 -69 126 -130 126 -134 0 -4
-36 -7 -79 -7 -80 0 -96 -6 -82 -28 5 -9 39 -12 122 -10 l114 3 0 120 c0 100
-2 120 -15 120 -12 0 -16 -18 -20 -83 l-5 -82 -130 130 c-71 71 -133 130 -138
130 -4 0 -10 -7 -14 -16z"/>
<path d="M963 1148 c-11 -13 -24 -33 -27 -45 -7 -21 -12 -21 -180 -25 l-173
-3 -37 -29 c-28 -21 -49 -52 -77 -114 -64 -138 -69 -261 -16 -374 13 -29 28
-63 31 -75 4 -11 27 -40 51 -62 l45 -41 170 0 170 0 20 -40 c20 -39 63 -71 76
-57 4 3 2 24 -3 45 l-10 39 60 7 c33 3 196 6 362 6 334 0 362 4 430 63 32 28
37 40 47 102 5 38 8 141 6 230 -6 207 -12 224 -105 268 l-68 32 -368 3 c-336
4 -367 5 -363 21 19 62 18 71 -1 71 -11 0 -29 -10 -40 -22z m-387 -180 c-34
-35 -63 -59 -65 -55 -2 5 5 27 15 48 18 41 53 68 90 69 17 0 9 -12 -40 -62z
m718 46 c13 -34 7 -36 -81 -30 -106 8 -191 24 -198 37 -4 5 50 9 133 9 118 0
141 -2 146 -16z m356 6 c0 -20 -40 -28 -175 -35 l-141 -7 -12 26 -12 26 170 0
c103 0 170 -4 170 -10z m-630 -54 l65 -11 -5 -75 c-7 -114 -6 -227 4 -306 l8
-72 -48 -10 c-27 -6 -74 -13 -105 -17 -55 -7 -56 -6 -67 22 -38 94 -46 292
-17 403 9 36 19 68 21 72 7 11 65 8 144 -6z m801 -52 c57 -51 54 -335 -4 -382
-7 -6 -50 -12 -97 -13 l-85 -4 -3 200 c-1 110 0 206 3 214 8 20 161 8 186 -15z
m-1198 -492 c-36 -9 -113 65 -113 108 0 12 20 -2 63 -44 34 -33 57 -62 50 -64z
m677 34 c0 -31 -27 -37 -161 -34 -115 3 -131 5 -111 16 49 28 272 43 272 18z
m335 -6 c8 -7 15 -16 15 -21 0 -5 -76 -9 -170 -9 -93 0 -170 3 -170 6 0 3 5
15 11 26 11 20 17 21 155 15 92 -3 150 -9 159 -17z"/>
</g>
</svg>
