<?xml version="1.0" standalone="no"?>
<!DOCTYPE svg PUBLIC "-//W3C//DTD SVG 20010904//EN"
 "http://www.w3.org/TR/2001/REC-SVG-20010904/DTD/svg10.dtd">
<svg version="1.0" xmlns="http://www.w3.org/2000/svg"
 width="197.000000pt" height="164.000000pt" viewBox="0 0 197.000000 164.000000"
 preserveAspectRatio="xMidYMid meet">

<g transform="translate(0.000000,164.000000) scale(0.100000,-0.100000)"
fill="#000000" stroke="none">
<path d="M550 1290 c-11 -11 -22 -31 -26 -45 l-6 -25 -133 0 c-73 0 -153 -3
-179 -6 -68 -10 -116 -58 -161 -161 -42 -98 -54 -185 -35 -270 16 -74 87 -211
123 -237 32 -23 119 -34 285 -35 83 -1 102 -4 102 -16 0 -24 55 -79 73 -72 13
5 14 12 6 42 -6 20 -8 39 -5 42 3 3 169 8 368 10 l363 5 62 28 c34 15 68 39
77 52 48 73 46 460 -2 528 -10 14 -44 38 -76 54 l-57 29 -370 5 -370 5 6 26
c3 14 8 34 11 44 7 24 -30 23 -56 -3z m-351 -145 c-19 -14 -51 -44 -71 -68
l-37 -42 9 34 c19 68 53 99 109 100 24 1 23 0 -10 -24z m685 3 c5 -9 7 -20 3
-24 -12 -12 -243 13 -274 30 -26 15 -18 15 116 13 123 -2 145 -4 155 -19z
m350 8 c-8 -22 -23 -25 -172 -32 l-138 -7 -17 27 -17 26 174 0 c148 0 175 -2
170 -14z m-631 -50 c37 -7 70 -16 73 -19 3 -3 1 -37 -5 -76 -14 -88 -14 -207
0 -291 13 -80 9 -84 -108 -100 -101 -15 -104 -12 -123 74 -28 125 -21 306 15
392 16 40 35 42 148 20z m809 -57 c37 -44 50 -209 23 -308 -8 -30 -19 -59 -25
-65 -13 -13 -172 -27 -184 -16 -12 12 -13 409 -1 415 6 2 46 2 90 -1 63 -4 84
-9 97 -25z m-1250 -424 c37 -36 61 -65 54 -65 -31 0 -76 23 -91 47 -15 22 -38
83 -31 83 1 0 32 -29 68 -65z m728 -23 c0 -5 -6 -16 -13 -25 -11 -15 -29 -17
-152 -15 -126 3 -137 4 -110 16 55 25 275 44 275 24z m336 -13 c8 -6 14 -15
14 -20 0 -5 -78 -9 -174 -9 l-174 0 11 26 12 26 149 -5 c89 -4 154 -11 162
-18z"/>
<path d="M1452 518 c-8 -8 -12 -49 -12 -120 0 -89 3 -110 15 -115 25 -9 29 3
31 85 1 42 2 79 3 82 0 3 62 -56 136 -130 107 -107 137 -132 147 -122 10 10
-15 40 -122 147 l-135 135 75 0 c81 0 106 9 97 34 -5 13 -25 16 -115 16 -71 0
-112 -4 -120 -12z"/>
</g>
</svg>
