<?xml version="1.0" standalone="no"?>
<!DOCTYPE svg PUBLIC "-//W3C//DTD SVG 20010904//EN"
 "http://www.w3.org/TR/2001/REC-SVG-20010904/DTD/svg10.dtd">
<svg version="1.0" xmlns="http://www.w3.org/2000/svg"
 width="512.000000pt" height="512.000000pt" viewBox="0 0 512.000000 512.000000"
 preserveAspectRatio="xMidYMid meet">

<g transform="translate(0.000000,512.000000) scale(0.100000,-0.100000)"
fill="#000000" stroke="none">
<path d="M1545 3903 c-182 -15 -322 -54 -515 -143 -421 -194 -376 -177 -480
-182 -172 -9 -228 -62 -255 -242 -5 -31 -14 -50 -30 -60 -12 -8 -33 -36 -45
-62 -21 -42 -22 -56 -17 -141 8 -109 29 -158 86 -197 44 -30 328 -136 365
-136 60 0 90 85 44 127 -13 11 -88 44 -168 74 -80 29 -150 57 -156 63 -7 6
-15 36 -18 67 -7 55 -6 57 33 102 43 51 44 52 61 150 9 46 18 71 31 77 10 6
53 10 97 10 92 0 142 18 435 159 291 140 383 164 627 165 128 1 165 -2 215
-19 72 -23 193 -103 335 -221 161 -134 132 -124 375 -124 308 0 491 -32 703
-120 138 -58 132 -49 132 -201 0 -145 -2 -149 -79 -149 -47 0 -81 -34 -81 -81
0 -62 71 -91 169 -69 68 15 133 73 150 135 14 51 14 288 0 338 -5 21 -24 53
-41 73 -57 65 -243 144 -439 188 -158 35 -278 46 -489 46 l-180 0 -88 73
c-217 183 -353 264 -487 292 -64 13 -188 17 -290 8z"/>
<path d="M3985 3866 c-93 -30 -167 -95 -207 -181 -23 -50 -23 -50 -26 -607
l-3 -558 -1757 -2 -1757 -3 -51 -27 c-76 -40 -107 -70 -145 -140 l-34 -63 0
-205 c0 -204 0 -205 28 -262 32 -65 89 -121 156 -152 41 -19 67 -21 233 -24
l187 -4 26 26 c36 36 35 97 -1 125 -25 19 -40 21 -194 21 -157 0 -169 1 -200
23 -71 48 -75 60 -78 245 -2 158 -1 169 20 207 15 26 39 48 68 63 l44 22 1789
0 1788 0 24 25 25 24 0 593 0 593 23 40 c14 26 37 48 67 63 42 21 56 22 253
22 250 0 281 -6 348 -69 47 -44 54 -58 190 -391 192 -468 179 -426 179 -599
l0 -147 -103 4 c-125 5 -175 -7 -229 -56 -50 -45 -68 -85 -68 -154 0 -72 30
-129 91 -174 74 -54 141 -76 232 -77 l77 -1 0 -56 c0 -65 -30 -133 -73 -164
-18 -13 -51 -22 -97 -27 -86 -7 -110 -25 -110 -81 0 -61 25 -78 113 -78 95 0
155 21 217 77 95 85 90 50 90 635 -1 397 -4 521 -14 548 -34 90 -281 682 -308
738 -40 80 -126 162 -205 193 -55 22 -73 24 -313 26 -187 2 -266 -1 -295 -11z
m959 -1515 c27 -30 18 -101 -14 -120 -22 -12 -33 -12 -82 3 -59 17 -118 58
-118 82 0 8 9 23 20 34 29 29 168 29 194 1z"/>
<path d="M4260 3566 c-64 -17 -115 -59 -145 -119 -25 -50 -25 -54 -25 -287 0
-233 0 -237 25 -287 15 -28 42 -64 62 -79 61 -46 114 -54 374 -54 244 0 291 6
309 40 14 27 12 73 -4 96 -13 18 -32 19 -289 24 -252 5 -277 7 -296 24 -20 18
-21 28 -21 231 0 276 -11 259 174 263 132 3 136 4 156 29 37 47 22 103 -31
122 -42 15 -232 13 -289 -3z"/>
<path d="M968 3217 c-99 -38 -157 -88 -206 -181 -24 -45 -27 -62 -27 -146 0
-84 3 -102 28 -151 66 -135 216 -213 363 -189 75 12 135 43 188 96 165 165
118 448 -92 551 -66 32 -193 42 -254 20z m210 -179 c49 -33 76 -87 75 -154 -1
-104 -73 -176 -178 -177 -123 -2 -204 101 -181 228 8 42 58 102 101 122 47 21
136 12 183 -19z"/>
<path d="M2775 3217 c-97 -32 -180 -111 -216 -206 -30 -79 -24 -205 13 -276
107 -206 381 -253 546 -92 68 66 95 126 100 227 5 106 -18 176 -84 249 -64 71
-137 104 -239 108 -48 2 -96 -2 -120 -10z m172 -158 c34 -13 80 -55 99 -91 34
-66 6 -184 -53 -226 -94 -66 -224 -38 -273 58 -24 46 -26 129 -6 168 18 35 64
78 96 91 34 13 102 13 137 0z"/>
<path d="M1445 2840 c-26 -29 -25 -85 3 -113 l23 -22 509 0 509 0 23 22 c28
28 29 84 3 113 -18 20 -27 20 -535 20 -508 0 -517 0 -535 -20z"/>
<path d="M4112 2607 c-20 -21 -22 -34 -22 -128 0 -97 2 -107 23 -127 29 -27
77 -28 108 -3 23 18 24 26 24 131 0 105 -1 113 -24 131 -32 26 -82 25 -109 -4z"/>
<path d="M1090 2197 c-213 -72 -343 -256 -342 -481 2 -225 141 -413 355 -477
87 -27 232 -23 319 8 194 71 328 264 328 473 0 227 -154 428 -371 485 -83 22
-211 19 -289 -8z m287 -159 c70 -26 148 -100 182 -173 35 -74 40 -182 11 -257
-27 -72 -105 -160 -174 -195 -67 -34 -181 -43 -252 -19 -137 46 -235 179 -237
321 -2 143 94 280 231 330 59 22 172 19 239 -7z"/>
<path d="M3950 2201 c-91 -29 -142 -61 -211 -130 -74 -74 -113 -146 -135 -249
-17 -84 -17 -120 0 -204 22 -103 61 -175 135 -249 103 -103 213 -149 355 -149
45 0 104 6 132 14 213 57 374 266 374 486 0 222 -160 429 -375 486 -71 19
-208 17 -275 -5z m277 -162 c72 -28 144 -94 180 -168 24 -49 28 -68 28 -146
-1 -79 -4 -97 -30 -148 -38 -76 -117 -149 -193 -177 -76 -29 -186 -25 -254 8
-74 37 -134 96 -170 170 -28 57 -33 76 -33 142 1 116 53 213 151 281 64 43
109 57 191 58 51 1 89 -5 130 -20z"/>
<path d="M1865 1775 c-16 -15 -25 -36 -25 -55 0 -19 9 -40 25 -55 l24 -25 786
0 786 0 24 25 c35 34 34 86 -1 114 -26 21 -33 21 -811 21 l-784 0 -24 -25z"/>
</g>
</svg>
